HIERARCHY
ROOT pelvis
{
  OFFSET 0 100 0
  CHANNELS 6 Xposition Yposition Zposition Zrotation Xrotation Yrotation
  JOINT pelvis_right_femur
  {
    OFFSET -10.78128 -3.44521 -0.5502486
    CHANNELS 3 Zrotation Xrotation Yrotation
    JOINT right_femur_tibia
    {
      OFFSET -0.8047443 -44.0398 -0.1307829
      CHANNELS 3 Zrotation Xrotation Yrotation
      JOINT right_tibia_foot
      {
        OFFSET 3.006224 -47.83518 -5
        CHANNELS 3 Zrotation Xrotation Yrotation
        End Site
        {
          OFFSET 0 -5 15
        }
      }
    }
  }
  JOINT pelvis_left_femur
  {
    OFFSET 10.78128 -3.44521 -0.5502486
    CHANNELS 3 Zrotation Xrotation Yrotation
    JOINT left_femur_tibia
    {
      OFFSET 0.8047443 -44.0398 -0.1307829
      CHANNELS 3 Zrotation Xrotation Yrotation
      JOINT left_tibia_foot
      {
        OFFSET -4.370144 -48.10324 -4.275266
        CHANNELS 3 Zrotation Xrotation Yrotation
        End Site
        {
          OFFSET 0 -5 15
        }
      }
    }
  }
  JOINT pelvis_spine1
  {
    OFFSET 0 6.468898 -3.129235
    CHANNELS 3 Zrotation Xrotation Yrotation
    JOINT spine1
    {
      OFFSET 0 23.15396 4.99043
      CHANNELS 3 Zrotation Xrotation Yrotation
      JOINT spine2
      {
        OFFSET 0 20.79997 -5.064912
        CHANNELS 3 Zrotation Xrotation Yrotation
        JOINT neck
        {
          OFFSET 0 14.38658 9.616178
          CHANNELS 3 Zrotation Xrotation Yrotation
          End Site
          {
            OFFSET 0 20 0
          }
        }
      }
      JOINT right_manubrium
      {
        OFFSET -5.722621 16.35077 3.967754
        CHANNELS 3 Zrotation Xrotation Yrotation
        JOINT right_clavicle
        {
          OFFSET -13.16364 1.694482 -4.693211
          CHANNELS 3 Zrotation Xrotation Yrotation
          JOINT right_humerus
          {
            OFFSET -28.5034 -0.3100689 -2.792744
            CHANNELS 3 Zrotation Xrotation Yrotation
            JOINT right_radius
            {
              OFFSET -25.15693 0.02248979 -1.271978
              CHANNELS 3 Zrotation Xrotation Yrotation
              End Site
              {
                OFFSET -15 0 0
              }
            }
          }
        }
      }
      JOINT left_manubrium
      {
        OFFSET 5.722621 16.35077 3.967754
        CHANNELS 3 Zrotation Xrotation Yrotation
        JOINT left_clavicle
        {
          OFFSET 13.16364 1.694482 -4.693211
          CHANNELS 3 Zrotation Xrotation Yrotation
          JOINT left_humerus
          {
            OFFSET 29.39168 -1.063119 -2.237045
            CHANNELS 3 Zrotation Xrotation Yrotation
            JOINT left_radius
            {
              OFFSET 24.59957 -0.9528479 0.9047498
              CHANNELS 3 Zrotation Xrotation Yrotation
              End Site
              {
                OFFSET 15 -0 -0
              }
            }
          }
        }
      }
    }
  }
}
MOTION
Frames: 11
Frame Time: 0.0416666666667
0 103.5113 0 1.625709 0.5541117 -0.04355068 3.729143 -16.3859 12.21043 -0 40.30249 -0 -5.491651 -18.28388 -4.111494 -8.078406 7.663652 -23.19523 -0 5.189172 -0 18.01209 -11.35218 31.32921 -4.549338 -4.315289 5.631143 2.999893 9.904185 -8.157336 1.367636 21.75249 6.797052 2.732763 -25.58809 9.936455 6.54544 -20.46681 11.82788 85.30633 39.8316 -17.85859 -0 0 16.23322 -5.484778 8.147866 4.484153 5.393844 -18.59512 -0.6689784 -91.13194 20.89738 19.63835 0 0 -15.59347 16.26501 12.49734 -3.610755
0.2356949 103.3877 1.504285 1.484667 0.8554893 -0.03830577 4.084395 -17.60041 11.98181 -0 38.8715 -0 -5.379447 -17.38233 -3.839262 -8.028695 8.007057 -22.84555 -0 5.160692 -0 17.63057 -11.90509 30.90892 -4.430189 -4.17181 5.634652 3.043484 9.98159 -8.171355 1.356874 21.56771 6.803928 2.746085 -25.75578 9.943695 6.465962 -20.50175 11.80859 85.54355 39.75293 -18.19754 -0 0 16.06493 -5.413685 8.049781 4.43587 5.544868 -18.86569 -0.7336267 -91.04367 20.90104 19.66079 0 0 -16.45923 16.15863 12.22916 -3.443985
0.5608291 102.8615 4.679051 0.3113808 2.604626 0.2446902 6.263307 -29.21885 7.465228 -0 23.72626 -0 -5.733439 -7.618715 -1.088503 -7.185964 12.4822 -18.52624 -0 6.404474 -0 12.66654 -17.38678 25.07501 -3.202144 -2.71964 4.903011 3.050648 10.69801 -8.346441 1.196003 20.25314 6.811222 3.352203 -25.85718 9.199224 5.461139 -19.88072 11.50792 87.85329 37.99426 -21.32659 -0 0 13.83451 -7.206818 7.895814 4.401614 7.284344 -22.0043 -2.101978 -88.65178 19.70356 17.22717 0 0 -24.59769 15.68786 10.84513 -3.690291
0.8798495 102.0941 8.879236 -0.1705105 3.521337 0.7142222 6.973762 -34.0666 4.815609 -0 15.64419 -0 -5.889139 -2.424896 0.3004582 -6.969742 14.30961 -15.95224 -0 9.757296 -0 10.10673 -19.25474 21.53334 -2.689267 -1.99545 4.438643 3.16216 10.79385 -8.454206 1.062354 19.82805 6.944772 3.70146 -25.79847 8.85783 4.938284 -19.05231 11.24743 88.55431 37.39282 -22.70108 -0 0 12.18989 -8.38808 8.200375 4.553693 7.923319 -23.02437 -2.815023 -87.44832 19.14095 15.85564 0 0 -28.04852 15.60955 9.980778 -3.934797
1.176384 101.2507 13.82868 -0.3996803 3.613419 1.284677 6.926908 -35.76251 2.135366 -0 11.0817 -0 -6.082698 0.9727299 1.279122 -6.824825 15.15904 -13.93109 -0 14.08652 -0 8.139375 -19.72684 18.59417 -2.363793 -1.631612 3.912026 3.194149 10.77133 -8.477235 0.8814069 19.95072 7.061149 3.969075 -25.26698 8.431816 4.658797 -18.08412 11.14584 88.55892 36.27878 -23.30908 -0 0 10.65005 -9.917043 8.804479 4.99995 8.196426 -23.46704 -3.531873 -86.74706 18.74022 14.70538 0 0 -29.22994 15.82879 10.09716 -4.524446
1.442131 100.4683 19.33825 -0.4473677 2.966768 1.887224 6.467142 -35.24573 -0.6311185 -0 8.793095 -0 -6.387337 3.227748 1.983371 -6.667528 15.33326 -12.14229 -0 19.0739 -0 6.585703 -19.21407 16.09248 -2.094586 -1.555639 3.386515 3.107699 10.81251 -8.442866 0.6513748 20.45077 7.144295 4.188309 -24.32933 7.872285 4.427746 -17.14222 11.19976 88.32008 34.35384 -23.56361 -0 0 9.137383 -11.86715 9.564053 5.663363 8.298947 -23.83265 -4.363334 -86.35059 18.31243 13.62578 0 0 -29.0894 16.39195 10.95067 -5.479859
1.66654 99.84851 25.25188 -0.3597444 1.671131 2.450085 5.935857 -33.12504 -3.197837 -0 7.906042 -0 -6.880906 4.653928 2.39417 -6.447523 15.00414 -10.46713 -0 24.55192 -0 5.396684 -17.98835 14.0809 -1.801599 -1.718597 2.952877 2.886039 11.02634 -8.369153 0.4266407 21.18705 7.158608 4.349883 -23.11841 7.226321 4.050801 -16.38416 11.36846 88.23354 31.53178 -23.74182 -0 0 7.672818 -14.16125 10.36969 6.441682 8.304949 -24.38806 -5.318766 -86.18013 17.81178 12.62657 0 0 -28.23256 17.20446 12.31365 -6.623756
1.833808 99.45464 31.43961 -0.1596203 -0.1579464 2.896774 5.571293 -29.93257 -5.252009 -0 7.712117 -0 -7.62159 5.502081 2.457964 -6.154486 14.30371 -8.850482 -0 30.3952 -0 4.632609 -16.26442 12.67503 -1.45451 -2.06909 2.705189 2.538292 11.499 -8.279604 0.2707649 22.00526 7.050951 4.424791 -21.79022 6.551908 3.358252 -15.96642 11.60489 88.62497 27.91813 -24.01415 -0 0 6.334779 -16.63059 11.08953 7.229062 8.218267 -25.26268 -6.381042 -86.13218 17.14547 11.75372 0 0 -27.19951 18.11527 13.84068 -7.7524
1.926018 99.3171 37.79825 0.1184697 -2.355651 3.156353 5.478193 -26.16362 -6.568222 -0 7.694479 -0 -8.612224 5.982527 2.138369 -5.796309 13.34177 -7.300097 -0 36.45287 -0 4.342881 -14.25143 11.94521 -1.054767 -2.54272 2.706808 2.104318 12.27046 -8.196353 0.2409768 22.74984 6.765516 4.370873 -20.51881 5.911933 2.255106 -16.01167 11.85834 89.65756 23.78042 -24.40495 -0 0 5.249948 -19.0404 11.6074 7.93609 7.992959 -26.43206 -7.508722 -86.12448 16.24649 11.12279 0 0 -26.3864 18.88542 15.18101 -8.606814
1.928021 99.44467 44.25065 0.4186052 -4.717933 3.173415 5.64819 -22.22831 -7.06836 -0 7.576336 -0 -9.786443 6.253547 1.459898 -5.385999 12.18788 -5.862832 -0 42.52927 -0 4.508241 -12.12935 11.84907 -0.6213085 -3.068099 2.970652 1.643777 13.32184 -8.137103 0.3621052 23.28956 6.272486 4.158022 -19.45829 5.352212 0.7613687 -16.57293 12.0816 91.29197 19.49139 -24.82132 -0 0 4.569908 -21.15141 11.863 8.505604 7.574324 -27.74717 -8.648492 -86.11657 15.10633 10.89403 0 0 -25.98093 19.26316 16.07172 -8.948032
1.831405 99.83589 50.73675 0.6657586 -7.026087 2.914279 6.01609 -18.40497 -6.819595 -0 7.330588 -0 -11.01635 6.386041 0.5191775 -4.926991 10.85258 -4.603575 -0 48.36441 -0 5.017249 -10.03157 12.22687 -0.1765361 -3.577678 3.45553 1.218551 14.57129 -8.110369 0.6130935 23.54686 5.592686 3.788964 -18.70942 4.89368 -0.978115 -17.6106 12.24122 93.30507 15.45106 -25.12287 -0 0 4.432872 -22.78317 11.88387 8.925195 6.941095 -28.99438 -9.738293 -86.12771 13.81129 11.22965 0 0 -25.92725 19.08365 16.41574 -8.63924
